<svg width="26" height="29" viewBox="0 0 26 29" fill="none" xmlns="http://www.w3.org/2000/svg">
<path d="M5.66668 22.764C8.60801 22.764 11 20.372 11 17.4307V3.904L23 8.26666V18.1733C22.1932 17.6926 21.2725 17.4362 20.3333 17.4307C17.392 17.4307 15 19.8227 15 22.764C15 25.7053 17.392 28.0973 20.3333 28.0973C23.2747 28.0973 25.6667 25.7053 25.6667 22.764V7.33333C25.6669 7.05977 25.5827 6.79279 25.4258 6.56876C25.2688 6.34473 25.0465 6.17453 24.7893 6.08133L10.1227 0.747995C9.92133 0.674391 9.7052 0.650471 9.49264 0.678267C9.28007 0.706063 9.07736 0.784753 8.90171 0.907653C8.72606 1.03055 8.58267 1.19403 8.48372 1.3842C8.38477 1.57438 8.33319 1.78562 8.33334 2V12.84C7.5265 12.3593 6.60586 12.1029 5.66668 12.0973C2.72534 12.0973 0.333344 14.4893 0.333344 17.4307C0.333344 20.372 2.72534 22.764 5.66668 22.764Z" fill="#191919" fill-opacity="0.3"/>
</svg>
