<svg width="27" height="28" viewBox="0 0 27 28" fill="none" xmlns="http://www.w3.org/2000/svg">
<path d="M13.6667 0.666656C21.0307 0.666656 27 6.63599 27 14C27 21.364 21.0307 27.3333 13.6667 27.3333C6.30268 27.3333 0.333344 21.364 0.333344 14C0.333344 6.63599 6.30268 0.666656 13.6667 0.666656ZM13.6667 5.99999C13.3131 5.99999 12.9739 6.14047 12.7239 6.39051C12.4738 6.64056 12.3333 6.9797 12.3333 7.33332V14C12.3334 14.3536 12.4739 14.6927 12.724 14.9427L16.724 18.9427C16.9755 19.1855 17.3123 19.3199 17.6619 19.3169C18.0115 19.3138 18.3459 19.1736 18.5931 18.9264C18.8403 18.6792 18.9805 18.3448 18.9836 17.9952C18.9866 17.6456 18.8522 17.3088 18.6093 17.0573L15 13.448V7.33332C15 6.9797 14.8595 6.64056 14.6095 6.39051C14.3594 6.14047 14.0203 5.99999 13.6667 5.99999Z" fill="#191919" fill-opacity="0.3"/>
</svg>
