<svg width="27" height="28" viewBox="0 0 27 28" fill="none" xmlns="http://www.w3.org/2000/svg">
<path d="M18.4567 2.03625C17.2404 0.723125 15.5417 0 13.6667 0C11.7817 0 10.0773 0.71875 8.86669 2.02375C7.64294 3.34312 7.04669 5.13625 7.18669 7.0725C7.46419 10.8925 10.3711 14 13.6667 14C16.9623 14 19.8642 10.8931 20.1461 7.07375C20.2879 5.155 19.6879 3.36563 18.4567 2.03625ZM24.6667 28H2.66669C2.37873 28.0037 2.09356 27.9433 1.83192 27.8229C1.57028 27.7026 1.33876 27.5254 1.15419 27.3044C0.747944 26.8188 0.584194 26.1556 0.705444 25.485C1.23294 22.5588 2.87919 20.1006 5.46669 18.375C7.76544 16.8431 10.6773 16 13.6667 16C16.6561 16 19.5679 16.8438 21.8667 18.375C24.4542 20.1 26.1004 22.5581 26.6279 25.4844C26.7492 26.155 26.5854 26.8181 26.1792 27.3037C25.9947 27.5249 25.7632 27.7022 25.5015 27.8226C25.2399 27.9431 24.9547 28.0037 24.6667 28Z" fill="#191919" fill-opacity="0.3"/>
</svg>
